<svg xmlns="http://www.w3.org/2000/svg" width="36" height="36" fill="none" viewBox="0 0 36 36">
  <circle cx="18" cy="18" r="18" fill="#F5F5F5"/>
  <g clip-path="url(#a)">
    <path fill="#84829A" d="M24.654 12.15c-.368-.107-9.392-1.005-12.56 3.276-1.404 1.896-1.425 4.496-.07 7.726a16.268 16.268 0 0 0-.89 2.257.456.456 0 1 0 .871.27c2.415-7.809 10.264-11.586 12.671-12.54.235-.094.548-.822-.022-.988Z"/>
    <path fill="#84829A" d="M13.472 24.13c1.306.548 2.612.829 3.827.829 1.092 0 2.11-.225 2.988-.68 1.765-.916 2.845-2.668 3.12-5.068.28-2.445.63-3.977.922-4.914-2.596 1.197-8.16 4.3-10.857 9.833Z"/>
  </g>
  <defs>
    <clipPath id="a">
      <path fill="#fff" d="M0 0h14v14H0z" transform="translate(11 12)"/>
    </clipPath>
  </defs>
</svg>
