<svg xmlns="http://www.w3.org/2000/svg" width="36" height="36" fill="none" viewBox="0 0 36 36">
  <circle cx="18" cy="18" r="18" fill="#F5F5F5"/>
  <g clip-path="url(#a)">
    <path fill="#84829A" d="M23.5 11a.5.5 0 0 0-.223.053l-3.789 1.895-4.284-1.905c-.007-.003-.015-.003-.023-.006a.508.508 0 0 0-.12-.03.753.753 0 0 0-.121 0 .541.541 0 0 0-.12.03c-.007.003-.015.003-.022.006l-4.5 2A.5.5 0 0 0 10 13.5v11a.5.5 0 0 0 .703.457L15 23.047l4.297 1.91c.007.003.015 0 .023.005.12.054.26.05.378-.009.008-.003.017 0 .025-.005l4-2A.5.5 0 0 0 24 22.5v-11a.5.5 0 0 0-.5-.5Zm-9 11.175L11 23.73v-9.905l3.5-1.555v9.905ZM19 23.73l-3.5-1.555V12.27l3.5 1.555v9.905Zm4-1.539-3 1.5v-9.882l3-1.5v9.882Z"/>
  </g>
  <defs>
    <clipPath id="a">
      <path fill="#fff" d="M0 0h14v14H0z" transform="translate(10 11)"/>
    </clipPath>
  </defs>
</svg>
